<svg width="280" height="280" viewBox="0 0 280 280" fill="none" xmlns="http://www.w3.org/2000/svg">
<path d="M101.733 38.5093C101.729 35.6462 102.042 32.7915 102.667 29.9973C104.561 21.5022 109.289 13.9044 116.074 8.45277C122.859 3.00116 131.296 0.0202223 140 0L38.3228 0C33.2788 0.00979352 28.2862 1.01329 23.6301 2.95316C18.9741 4.89303 14.7459 7.73125 11.187 11.3057C7.62821 14.8801 4.80851 19.1207 2.88902 23.7852C0.969541 28.4497 -0.0121065 33.4467 0.00016357 38.4907C-0.0145632 43.5362 0.965272 48.5352 2.88365 53.2018C4.80204 57.8685 7.62135 62.1113 11.1804 65.6877C14.7395 69.2641 18.9686 72.104 23.6258 74.045C28.2831 75.9861 33.2773 76.9902 38.3228 77H140C129.823 76.9654 120.076 72.8919 112.901 65.6745C105.725 58.4572 101.709 48.6865 101.733 38.5093Z" fill="#5746DB"/>
<path d="M240.783 0H139.105C130.402 0.0202223 121.964 3.00116 115.179 8.45277C108.394 13.9044 103.666 21.5022 101.772 29.9973C100.483 35.6167 100.476 41.4541 101.75 47.0767C103.025 52.6993 105.549 57.9629 109.134 62.4774C112.72 66.9918 117.276 70.6413 122.464 73.1553C127.652 75.6693 133.34 76.9833 139.105 77H240.727C245.775 76.9975 250.774 75.9995 255.436 74.0629C260.099 72.1263 264.334 69.2892 267.898 65.7141C271.463 62.1389 274.288 57.8958 276.211 53.2277C278.134 48.5595 279.117 43.558 279.105 38.5093C279.12 33.4638 278.14 28.4648 276.222 23.7981C274.303 19.1315 271.484 14.8887 267.925 11.3123C264.366 7.73587 260.137 4.89598 255.479 2.95494C250.822 1.0139 245.828 0.00979002 240.783 0Z" fill="#7767F6"/>
<path d="M133.747 139.998C133.737 134.953 134.721 129.956 136.642 125.291C138.564 120.627 141.385 116.386 144.946 112.812C148.506 109.238 152.735 106.4 157.392 104.46C162.05 102.52 167.043 101.517 172.088 101.507H37.9121C32.9236 101.517 27.9859 102.509 23.3809 104.427C18.7759 106.345 14.5937 109.152 11.0733 112.686C7.55283 116.22 4.76299 120.414 2.86304 125.026C0.963096 129.639 -0.00974147 134.58 7.35331e-05 139.569V141.025C0.0887838 151.013 4.12517 160.56 11.2281 167.582C18.3311 174.605 27.9237 178.532 37.9121 178.507H172.088C161.898 178.483 152.134 174.412 144.944 167.191C137.755 159.969 133.727 150.188 133.747 139.998Z" fill="#5746DB"/>
<path d="M242.089 101.493H172.089C161.898 101.517 152.135 105.588 144.945 112.809C137.755 120.031 133.728 129.812 133.747 140.002C133.738 145.047 134.722 150.044 136.643 154.709C138.565 159.373 141.386 163.614 144.946 167.188C148.507 170.762 152.736 173.6 157.393 175.54C162.05 177.479 167.044 178.483 172.089 178.493H242.089C252.075 178.523 261.668 174.599 268.771 167.58C275.875 160.56 279.912 151.015 280.001 141.029V139.573C280.02 129.496 276.038 119.824 268.929 112.684C261.819 105.543 252.165 101.517 242.089 101.493Z" fill="#7767F6"/>
<path d="M243.841 203H140.278C135.234 203.012 130.241 204.018 125.584 205.96C120.928 207.902 116.7 210.742 113.142 214.318C109.583 217.894 106.764 222.135 104.844 226.801C102.925 231.467 101.944 236.464 101.956 241.509C101.956 241.982 101.956 242.449 101.956 242.909C101.956 243.152 101.956 243.395 101.956 243.637C102.249 248.935 103.631 254.115 106.013 258.855C108.396 263.595 111.73 267.794 115.806 271.189C116.722 271.952 117.675 272.669 118.662 273.336C119.39 273.84 120.137 274.325 120.921 274.773C122.36 275.612 123.85 276.361 125.382 277.013C130.067 278.99 135.101 280.006 140.185 280C189.428 280 230.476 254.091 252.521 224.168C253.342 223.048 254.145 221.928 254.948 220.789C255.758 219.106 256.18 217.263 256.18 215.395C256.18 212.117 254.882 208.973 252.569 206.65C250.257 204.327 247.119 203.015 243.841 203Z" fill="#7767F6"/>
<path d="M121.015 274.772C120.231 274.324 119.484 273.839 118.756 273.335C117.769 272.668 116.815 271.951 115.9 271.188C111.823 267.793 108.49 263.594 106.107 258.854C103.724 254.114 102.343 248.934 102.049 243.636C102.049 243.394 102.049 243.151 102.049 242.908C102.049 242.666 102.049 241.975 102.049 241.508C102.037 236.463 103.018 231.465 104.938 226.8C106.857 222.134 109.676 217.893 113.235 214.317C116.794 210.741 121.022 207.901 125.678 205.959C130.334 204.017 135.327 203.011 140.372 202.999L37.8172 202.57H36.3985C33.2257 202.732 30.2365 204.107 28.0481 206.41C25.8597 208.713 24.6392 211.769 24.6385 214.946C24.6396 217.164 25.2324 219.342 26.3559 221.255L27.7559 223.122C40.6603 240.775 57.5541 255.129 77.0599 265.014C96.5657 274.898 118.131 280.033 139.998 279.999H140.204C135.119 280.005 130.086 278.989 125.401 277.012C123.894 276.357 122.429 275.609 121.015 274.772Z" fill="#5746DB"/>
</svg>
